<?xml version="1.0" encoding="utf-8"?>
<!-- Generator: Adobe Illustrator 27.5.0, SVG Export Plug-In . SVG Version: 6.00 Build 0)  -->
<svg version="1.1" xmlns="http://www.w3.org/2000/svg" xmlns:xlink="http://www.w3.org/1999/xlink" x="0px" y="0px"
	 viewBox="0 0 750 500" style="enable-background:new 0 0 750 500;" xml:space="preserve">
<g id="BACKGROUND">
	<g>
		<g>
			<rect style="fill:#ECCAFF;" width="750" height="500"/>
		</g>
		<path style="fill:#C2D9FF;" d="M386.514,123.513l-96.092-42.92c-41.283-18.439-89.844-3.833-114.105,34.321l-69.002,108.516
			c-25.338,39.847-16.053,92.447,21.395,121.212l83.105,63.834c21.957,16.865,50.389,22.839,77.276,16.235l89.493-21.981
			c13.147-3.229,26.849-3.489,40.11-0.762l99.491,20.463c40.345,8.298,81.242-11.488,99.776-48.272l29.214-57.978
			c15.897-31.548,12.135-69.441-9.655-97.248l-57.488-73.366c-27.123-34.614-75.091-44.932-114.048-24.531h0
			C441.268,133.979,411.987,134.891,386.514,123.513z"/>
	</g>
</g>
<g id="OBJECTS">
	<g>
		<g>
			<g>
				<rect x="118.99" y="83.698" style="fill:#5295FE;" width="92.566" height="92.566"/>
				<g>
					<g>
						<path style="fill:#F3F8FF;" d="M199.109,102.632h-56.902c-2.039,0-3.707-1.668-3.707-3.707v0c0-2.039,1.668-3.707,3.707-3.707
							h56.902c2.039,0,3.707,1.668,3.707,3.707l0,0C202.815,100.964,201.147,102.632,199.109,102.632z"/>
						<path style="fill:#F3F8FF;" d="M131.562,95.219h-0.125c-2.039,0-3.707,1.668-3.707,3.707c0,2.039,1.668,3.707,3.707,3.707
							h0.125c2.039,0,3.707-1.668,3.707-3.707C135.269,96.886,133.601,95.219,131.562,95.219z"/>
					</g>
					<g>
						<path style="fill:#F3F8FF;" d="M199.109,118.16h-56.902c-2.039,0-3.707-1.668-3.707-3.707v0c0-2.039,1.668-3.707,3.707-3.707
							h56.902c2.039,0,3.707,1.668,3.707,3.707l0,0C202.815,116.492,201.147,118.16,199.109,118.16z"/>
						<path style="fill:#F3F8FF;" d="M131.562,110.746h-0.125c-2.039,0-3.707,1.668-3.707,3.707c0,2.039,1.668,3.707,3.707,3.707
							h0.125c2.039,0,3.707-1.668,3.707-3.707C135.269,112.414,133.601,110.746,131.562,110.746z"/>
					</g>
					<g>
						<path style="fill:#F3F8FF;" d="M199.109,133.688h-56.902c-2.039,0-3.707-1.668-3.707-3.707l0,0
							c0-2.039,1.668-3.707,3.707-3.707h56.902c2.039,0,3.707,1.668,3.707,3.707l0,0
							C202.815,132.02,201.147,133.688,199.109,133.688z"/>
						<path style="fill:#F3F8FF;" d="M131.562,126.274h-0.125c-2.039,0-3.707,1.668-3.707,3.707c0,2.039,1.668,3.707,3.707,3.707
							h0.125c2.039,0,3.707-1.668,3.707-3.707C135.269,127.942,133.601,126.274,131.562,126.274z"/>
					</g>
					<g>
						<path style="fill:#F3F8FF;" d="M199.109,149.215h-56.902c-2.039,0-3.707-1.668-3.707-3.707l0,0
							c0-2.039,1.668-3.707,3.707-3.707h56.902c2.039,0,3.707,1.668,3.707,3.707l0,0
							C202.815,147.548,201.147,149.215,199.109,149.215z"/>
						<path style="fill:#F3F8FF;" d="M131.562,141.802h-0.125c-2.039,0-3.707,1.668-3.707,3.707c0,2.039,1.668,3.707,3.707,3.707
							h0.125c2.039,0,3.707-1.668,3.707-3.707C135.269,143.47,133.601,141.802,131.562,141.802z"/>
					</g>
					<g>
						<path style="fill:#F3F8FF;" d="M199.109,164.743h-56.902c-2.039,0-3.707-1.668-3.707-3.707v0c0-2.039,1.668-3.707,3.707-3.707
							h56.902c2.039,0,3.707,1.668,3.707,3.707l0,0C202.815,163.075,201.147,164.743,199.109,164.743z"/>
						<path style="fill:#F3F8FF;" d="M131.562,157.33h-0.125c-2.039,0-3.707,1.668-3.707,3.707s1.668,3.707,3.707,3.707h0.125
							c2.039,0,3.707-1.668,3.707-3.707S133.601,157.33,131.562,157.33z"/>
					</g>
				</g>
			</g>
			<g>
				<g>
					<g>
						<path style="fill:#6BDDBC;" d="M594.881,430.045h101.05l-21.704-25.974c0,0,25.9-35.079,3.439-62.86
							c-18.028-22.297-50.762-22.535-61.081,2.372c0,0,6.228-26.177-20.281-33.802C560.842,299.581,531.902,363.864,594.881,430.045
							z"/>
						
							<line style="fill:none;stroke:#3A9B9B;stroke-width:2;stroke-linecap:round;stroke-miterlimit:10;" x1="610.774" y1="428.206" x2="656.792" y2="340.737"/>
						
							<line style="fill:none;stroke:#3A9B9B;stroke-width:2;stroke-linecap:round;stroke-miterlimit:10;" x1="591.323" y1="320.1" x2="598.62" y2="428.744"/>
					</g>
					<path style="fill:#3A9B9B;" d="M631.361,344.574c0,0-11.803-29.11,19.474-41.682
						C650.834,302.892,662.405,336.935,631.361,344.574z"/>
					<path style="fill:#3A8987;" d="M652.876,314.407c-5.544,1.807-16.367,6.241-23.596,15.014
						c-0.654,8.403,2.081,15.153,2.081,15.153C650.558,339.851,653.458,325.031,652.876,314.407z"/>
					<g>
						<g>
							<g>
								<path style="fill:#9CF7C3;" d="M594.128,381.104l-0.739-1.788c44.9-18.546,16.843-100.052,16.555-100.873l1.826-0.642
									c0.074,0.208,7.354,21.136,8.854,44.136C622.627,352.657,613.465,373.118,594.128,381.104z"/>
							</g>
							
								<ellipse transform="matrix(0.1465 -0.9892 0.9892 0.1465 246.2014 840.8311)" style="fill:#FFB000;" cx="610.354" cy="277.744" rx="7.669" ry="7.669"/>
							<path style="fill:#FF8B00;" d="M617.211,274.324c-0.112,3.226-2.755,5.809-6.008,5.809c-3.324,0-6.019-2.695-6.019-6.019
								c0-0.88,0.194-1.714,0.533-2.468c-1.839,1.401-3.032,3.608-3.032,6.098c0,4.236,3.434,7.669,7.669,7.669
								s7.669-3.434,7.669-7.669C618.023,276.514,617.726,275.355,617.211,274.324z"/>
						</g>
						<g>
							<g>
								<path style="fill:#9CF7C3;" d="M591.508,386.346l-0.906-1.711c32.578-17.252,42.655-40.181,45.372-56.376
									c2.942-17.534-1.841-31.13-1.89-31.266l1.823-0.655c0.205,0.572,5.001,14.213,1.977,32.241
									C635.094,345.205,624.785,368.723,591.508,386.346z"/>
							</g>
							<path style="fill:#FFB000;" d="M642.54,292.266c0,4.235-3.434,7.669-7.669,7.669c-4.235,0-7.669-3.434-7.669-7.669
								c0-4.236,3.434-7.669,7.669-7.669C639.106,284.596,642.54,288.03,642.54,292.266z"/>
							<path style="fill:#FF8B00;" d="M641.727,288.845c-0.112,3.226-2.755,5.809-6.008,5.809c-3.324,0-6.019-2.695-6.019-6.019
								c0-0.88,0.194-1.714,0.533-2.468c-1.839,1.401-3.032,3.608-3.032,6.098c0,4.236,3.434,7.669,7.669,7.669
								c4.236,0,7.669-3.434,7.669-7.669C642.54,291.035,642.243,289.876,641.727,288.845z"/>
						</g>
					</g>
					<path style="fill:#3A9B9B;" d="M631.264,344.651c0,0,0.574-31.407,34.275-30.69
						C665.539,313.961,662.814,349.814,631.264,344.651z"/>
				</g>
				<g>
					<g>
						<path style="fill:#6BDDBC;" d="M155.119,430.045H54.069l21.704-25.974c0,0-25.9-35.079-3.439-62.86
							c18.028-22.297,50.762-22.535,61.081,2.372c0,0-6.228-26.177,20.281-33.802C189.158,299.581,218.098,363.864,155.119,430.045z
							"/>
						
							<line style="fill:none;stroke:#3A9B9B;stroke-width:2;stroke-linecap:round;stroke-miterlimit:10;" x1="139.226" y1="428.206" x2="93.208" y2="340.737"/>
						
							<line style="fill:none;stroke:#3A9B9B;stroke-width:2;stroke-linecap:round;stroke-miterlimit:10;" x1="158.677" y1="320.1" x2="151.38" y2="428.744"/>
					</g>
					<path style="fill:#3A9B9B;" d="M118.639,344.574c0,0,11.803-29.11-19.474-41.682
						C99.165,302.892,87.595,336.935,118.639,344.574z"/>
					<path style="fill:#3A8987;" d="M97.123,314.407c5.545,1.807,16.367,6.241,23.597,15.014c0.654,8.403-2.081,15.153-2.081,15.153
						C99.442,339.851,96.542,325.031,97.123,314.407z"/>
					<g>
						<g>
							<g>
								<path style="fill:#9CF7C3;" d="M155.872,381.104l0.739-1.788c-44.899-18.546-16.843-100.052-16.555-100.873l-1.826-0.642
									c-0.074,0.208-7.354,21.136-8.854,44.136C127.373,352.657,136.535,373.118,155.872,381.104z"/>
							</g>
							
								<ellipse transform="matrix(0.9966 -0.0825 0.0825 0.9966 -22.4323 12.4642)" style="fill:#FFB000;" cx="139.646" cy="277.744" rx="7.669" ry="7.669"/>
							<path style="fill:#FF8B00;" d="M132.789,274.324c0.112,3.226,2.755,5.809,6.008,5.809c3.324,0,6.019-2.695,6.019-6.019
								c0-0.88-0.194-1.714-0.533-2.468c1.839,1.401,3.032,3.608,3.032,6.098c0,4.236-3.434,7.669-7.669,7.669
								c-4.236,0-7.669-3.434-7.669-7.669C131.977,276.514,132.274,275.355,132.789,274.324z"/>
						</g>
						<g>
							<g>
								<path style="fill:#9CF7C3;" d="M158.492,386.346l0.906-1.711c-32.578-17.252-42.655-40.181-45.372-56.376
									c-2.942-17.534,1.84-31.13,1.89-31.266l-1.823-0.655c-0.205,0.572-5.001,14.213-1.977,32.241
									C114.906,345.205,125.215,368.723,158.492,386.346z"/>
							</g>
							<path style="fill:#FFB000;" d="M107.46,292.266c0,4.235,3.434,7.669,7.669,7.669c4.235,0,7.669-3.434,7.669-7.669
								c0-4.236-3.434-7.669-7.669-7.669C110.894,284.596,107.46,288.03,107.46,292.266z"/>
							<path style="fill:#FF8B00;" d="M108.272,288.845c0.112,3.226,2.755,5.809,6.008,5.809c3.324,0,6.019-2.695,6.019-6.019
								c0-0.88-0.194-1.714-0.533-2.468c1.84,1.401,3.032,3.608,3.032,6.098c0,4.236-3.434,7.669-7.669,7.669
								c-4.236,0-7.669-3.434-7.669-7.669C107.46,291.035,107.757,289.876,108.272,288.845z"/>
						</g>
					</g>
					<path style="fill:#3A9B9B;" d="M118.736,344.651c0,0-0.574-31.407-34.275-30.69C84.461,313.961,87.186,349.814,118.736,344.651
						z"/>
				</g>
			</g>
			<g>
				<path style="fill:#595975;" d="M626.999,441.22H123.001c-13.454,0-19.576-16.796-9.279-25.454l68.789-57.837h384.977
					l68.789,57.837C646.576,424.425,640.453,441.22,626.999,441.22z"/>
				<path style="fill:#F3F8FF;" d="M626.999,430.871H123.001c-13.454,0-19.576-16.796-9.279-25.454l68.789-57.837h384.977
					l68.789,57.837C646.576,414.075,640.453,430.871,626.999,430.871z"/>
				<path style="fill:#323244;" d="M177.648,340.038V121.114c0-5.106,4.139-9.245,9.245-9.245h376.212
					c5.106,0,9.245,4.139,9.245,9.245l0,218.924c0,5.106-4.139,9.245-9.245,9.245H186.894
					C181.788,349.284,177.648,345.145,177.648,340.038z"/>
				<g>
					<polygon style="fill:#F3F8FF;" points="561.992,127.438 561.992,127.438 561.992,338.965 187.927,338.965 187.926,338.965 
						187.926,127.438 					"/>
				</g>
				<path style="fill:#D9E6FF;" d="M561.992,338.965v-30.276c-112.169,10.544-269.157-131.984-374.065-141.74v172.016c0,0,0,0,0,0
					H561.992z"/>
				<g>
					<path style="fill:#595975;" d="M533.769,362.6h28.676l-6.076-5.377c-0.103-0.091-0.18-0.199-0.234-0.316h-27.719L533.769,362.6
						z"/>
					<path style="fill:#595975;" d="M470.618,362.6h29.146l-4.143-5.521c-0.04-0.053-0.055-0.115-0.082-0.173h-28.113L470.618,362.6
						z"/>
					<polygon style="fill:#595975;" points="510.691,377.16 506.681,371.816 475.786,371.816 478.782,377.16 					"/>
					<polygon style="fill:#595975;" points="544.803,377.16 539.778,371.816 509.102,371.816 513.112,377.16 					"/>
					<polygon style="fill:#595975;" points="578.898,377.16 572.859,371.816 542.435,371.816 547.459,377.16 					"/>
					<path style="fill:#595975;" d="M502.186,362.6h28.927l-5.115-5.439c-0.071-0.076-0.115-0.165-0.157-0.254h-27.927
						L502.186,362.6z"/>
					<polygon style="fill:#595975;" points="244.879,369.88 275.388,369.88 278.477,364.536 248.982,364.536 					"/>
					<polygon style="fill:#595975;" points="310.38,364.536 280.712,364.536 277.623,369.88 308.299,369.88 					"/>
					<path style="fill:#595975;" d="M439.057,362.6h29.342l-3.156-5.629c-0.012-0.021-0.011-0.044-0.021-0.065h-28.26L439.057,362.6
						z"/>
					<polygon style="fill:#595975;" points="376.063,362.6 405.604,362.6 404.564,356.907 376.128,356.907 					"/>
					<polygon style="fill:#595975;" points="375.896,377.16 408.264,377.16 407.288,371.816 375.957,371.816 					"/>
					<polygon style="fill:#595975;" points="212.151,369.88 242.438,369.88 246.541,364.536 217.268,364.536 					"/>
					<polygon style="fill:#595975;" points="376.04,364.536 375.979,369.88 406.934,369.88 405.958,364.536 					"/>
					<polygon style="fill:#595975;" points="476.563,377.16 473.566,371.816 442.449,371.816 444.416,377.16 					"/>
					<polygon style="fill:#595975;" points="442.353,377.16 440.386,371.816 409.255,371.816 410.232,377.16 					"/>
					<polygon style="fill:#595975;" points="407.571,362.6 436.994,362.6 434.899,356.907 406.531,356.907 					"/>
					<polygon style="fill:#595975;" points="342.65,362.6 343.788,356.907 315.429,356.907 313.212,362.6 					"/>
					<polygon style="fill:#595975;" points="471.704,364.536 474.7,369.88 505.228,369.88 501.217,364.536 					"/>
					<polygon style="fill:#595975;" points="570.672,369.88 564.633,364.536 535.589,364.536 540.614,369.88 					"/>
					<polygon style="fill:#595975;" points="469.484,364.536 439.77,364.536 441.737,369.88 472.481,369.88 					"/>
					<polygon style="fill:#595975;" points="503.638,364.536 507.649,369.88 537.958,369.88 532.933,364.536 					"/>
					<polygon style="fill:#595975;" points="439.673,369.88 437.707,364.536 407.925,364.536 408.902,369.88 					"/>
					<path style="fill:#595975;" d="M231.257,384.441l4.104-5.345h-32.036l-5.292,5.526h33.135
						C231.197,384.561,231.214,384.497,231.257,384.441z"/>
					<path style="fill:#595975;" d="M254.702,357.088l-4.233,5.512h29.127l3.291-5.693H254.79
						C254.761,356.968,254.744,357.032,254.702,357.088z"/>
					<path style="fill:#595975;" d="M195.603,384.362l5.042-5.265h-31.783l-6.34,5.526h32.916
						C195.481,384.53,195.529,384.439,195.603,384.362z"/>
					<path style="fill:#595975;" d="M193.954,357.228l-6.164,5.372h28.652l5.452-5.693h-27.702
						C194.137,357.026,194.059,357.136,193.954,357.228z"/>
					<path style="fill:#595975;" d="M224.325,357.167l-5.203,5.433h28.905l4.372-5.693H224.49
						C224.447,356.999,224.399,357.09,224.325,357.167z"/>
					<path style="fill:#595975;" d="M266.909,384.547l3.151-5.451h-32.258l-4.243,5.526h33.325
						C266.896,384.598,266.896,384.571,266.909,384.547z"/>
					<path style="fill:#595975;" d="M477.648,379.096h-67.977c-0.023,0.006-0.04,0.021-0.064,0.025
						c-0.059,0.011-0.117,0.016-0.175,0.016c-0.082,0-0.158-0.022-0.235-0.042h-34.072c-0.069,0.015-0.134,0.042-0.208,0.042
						c-0.004,0-0.008,0-0.011,0c-0.069-0.001-0.129-0.027-0.194-0.042H272.296l-3.194,5.526h211.644L477.648,379.096z"/>
					<path style="fill:#595975;" d="M546.623,379.096h-32.058l4.018,5.353c0.04,0.053,0.055,0.115,0.082,0.172h33.154
						L546.623,379.096z"/>
					<path style="fill:#595975;" d="M581.086,379.096H549.28l4.957,5.272c0.071,0.076,0.115,0.165,0.157,0.254h32.936
						L581.086,379.096z"/>
					<path style="fill:#595975;" d="M512.144,379.096h-32.277l3.062,5.461c0.012,0.021,0.011,0.044,0.021,0.065h33.341
						L512.144,379.096z"/>
					<polygon style="fill:#595975;" points="171.083,377.16 202.499,377.16 207.617,371.816 177.215,371.816 					"/>
					<polygon style="fill:#595975;" points="274.269,371.816 243.392,371.816 239.289,377.16 271.18,377.16 					"/>
					<polygon style="fill:#595975;" points="307.545,371.816 276.504,371.816 273.415,377.16 305.464,377.16 					"/>
					<path style="fill:#595975;" d="M285.079,356.982l-3.248,5.618h29.302l2.217-5.693h-28.246
						C285.093,356.931,285.093,356.958,285.079,356.982z"/>
					<polygon style="fill:#595975;" points="240.951,371.816 210.297,371.816 205.179,377.16 236.848,377.16 					"/>
					<polygon style="fill:#595975;" points="179.437,369.88 209.471,369.88 214.588,364.536 185.568,364.536 					"/>
					<polygon style="fill:#595975;" points="340.808,371.816 309.623,371.816 307.542,377.16 339.74,377.16 					"/>
					<polygon style="fill:#595975;" points="374.104,364.536 344.237,364.536 343.169,369.88 374.043,369.88 					"/>
					<polygon style="fill:#595975;" points="374.191,356.907 345.762,356.907 344.624,362.6 374.126,362.6 					"/>
					<polygon style="fill:#595975;" points="374.021,371.816 342.782,371.816 341.714,377.16 373.96,377.16 					"/>
					<polygon style="fill:#595975;" points="342.263,364.536 312.458,364.536 310.377,369.88 341.195,369.88 					"/>
				</g>
				<g>
					<g>
						<path style="fill:#FFFFFF;" d="M364.915,392.646h-19.277l-49.549,15.901l-6.039,8.036c-0.14,0.186-0.245,0.381-0.333,0.58
							L364.915,392.646z"/>
						<path style="fill:#FFFFFF;" d="M454.174,408.897l-11.352-15.105c-0.542-0.722-1.392-1.146-2.295-1.146h-45.138l-80.502,28.533
							h107.234L454.174,408.897z"/>
					</g>
					<g>
						<path style="fill:#595975;" d="M457.655,422.148h-165.31c-1.464,0-2.78-0.814-3.434-2.123
							c-0.654-1.31-0.514-2.851,0.365-4.022l17.128-22.791c0.721-0.96,1.868-1.533,3.069-1.533h131.055
							c1.201,0,2.348,0.573,3.069,1.533l17.128,22.791c0.879,1.17,1.02,2.711,0.366,4.021S459.119,422.148,457.655,422.148z
							 M309.473,393.614c-0.595,0-1.164,0.285-1.521,0.76l-17.128,22.791c-0.442,0.589-0.51,1.335-0.181,1.994
							c0.329,0.66,0.966,1.053,1.703,1.053h165.31c0.737,0,1.374-0.393,1.702-1.053c0.33-0.659,0.262-1.405-0.181-1.994
							l-17.128-22.791c-0.357-0.476-0.926-0.76-1.521-0.76H309.473z"/>
					</g>
				</g>
				<g>
					<path style="fill:#595975;" d="M380.27,120.16c0,2.911-2.36,5.27-5.27,5.27s-5.27-2.36-5.27-5.27c0-2.911,2.36-5.27,5.27-5.27
						S380.27,117.249,380.27,120.16z"/>
					<circle style="fill:#323244;" cx="375" cy="120.16" r="2.796"/>
					<path style="fill:#AAE83F;" d="M387.257,120.16c0,0.621-0.504,1.125-1.125,1.125c-0.621,0-1.125-0.504-1.125-1.125
						s0.504-1.125,1.125-1.125C386.753,119.035,387.257,119.539,387.257,120.16z"/>
				</g>
			</g>
			<g>
				
					<ellipse transform="matrix(0.2951 -0.9555 0.9555 0.2951 -147.4696 262.2249)" style="fill:#FFB000;" cx="103.983" cy="231.057" rx="32.934" ry="32.934"/>
				
					<ellipse transform="matrix(0.2845 -0.9587 0.9587 0.2845 -147.1087 265.01)" style="fill:#FFFFFF;" cx="103.983" cy="231.057" rx="28.131" ry="28.131"/>
				<path style="fill:#FFFFFF;" d="M129.026,231.057c0,13.831-11.213,25.043-25.044,25.043c-13.831,0-25.043-11.212-25.043-25.043
					c0-13.831,11.212-25.043,25.043-25.043C117.813,206.014,129.026,217.226,129.026,231.057z"/>
				<path style="fill:#D9E6FF;" d="M103.983,206.014c-13.831,0-25.043,11.212-25.043,25.043c0,0.464,0.015,0.923,0.039,1.381
					c13.157-1.685,31.457,1.873,49.286-7.519C125.527,214.055,115.695,206.014,103.983,206.014z"/>
				<path style="fill:#424260;" d="M106.384,231.057c0,1.326-1.075,2.401-2.402,2.401c-1.326,0-2.401-1.075-2.401-2.401
					c0-1.326,1.075-2.401,2.401-2.401C105.309,228.655,106.384,229.731,106.384,231.057z"/>
				<g>
					<path style="fill:#424260;" d="M111.244,239.108c-0.231,0-0.463-0.088-0.639-0.265l-7.755-7.755v-17.184
						c0-0.499,0.405-0.905,0.905-0.905c0.5,0,0.905,0.405,0.905,0.905v16.435l7.225,7.225c0.353,0.353,0.353,0.926,0,1.279
						C111.707,239.02,111.475,239.108,111.244,239.108z"/>
				</g>
			</g>
			<g>
				<path style="fill:#5295FE;" d="M557.79,130.063l-68.785-0.333c0.084-17.307,6.697-33.96,18.508-46.61
					c12.718-13.621,30.44-21.506,49.072-21.833L557.79,130.063z"/>
				<path style="fill:#FF5050;" d="M557.79,130.063l16.558,55.182c-5.372,1.612-10.95,2.431-16.558,2.431
					c-31.606,0-57.613-26.007-57.613-57.613c0-3.669,0.351-7.329,1.047-10.932L557.79,130.063z"/>
				<path style="fill:#FFB000;" d="M557.79,130.063l44.351-20.074c0.402,0.889,0.778,1.789,1.126,2.701
					c9.531,24.948-3.156,53.319-28.104,62.85c-9.781,3.736-20.511,4.22-30.588,1.377L557.79,130.063z"/>
				<path style="fill:#9129E3;" d="M557.79,130.063l-26.298-30.225c12.611-10.972,30.822-12.95,45.494-4.941
					c18.292,9.986,25.894,32.662,17.316,51.655L557.79,130.063z"/>
				<path style="fill:#80E1E8;" d="M557.79,130.063l21.604-18.875c4.566,5.226,7.084,11.935,7.084,18.875
					c0,15.738-12.95,28.688-28.688,28.688c-15.738,0-28.688-12.95-28.688-28.688s12.95-28.688,28.688-28.688
					c0.105,0,0.21,0.001,0.315,0.002L557.79,130.063z"/>
				
					<ellipse transform="matrix(0.2213 -0.9752 0.9752 0.2213 307.5063 645.2368)" style="fill:#F9F9F9;" cx="557.79" cy="130.063" rx="11.169" ry="11.169"/>
			</g>
			<g>
				<g>
					<g>
						<g>
							<rect x="261.973" y="147.922" style="fill:#C2D9FF;" width="22.605" height="159.648"/>
							<rect x="295.881" y="147.922" style="fill:#C2D9FF;" width="22.605" height="159.648"/>
							<rect x="329.789" y="147.922" style="fill:#C2D9FF;" width="22.605" height="159.648"/>
							<rect x="363.697" y="147.922" style="fill:#C2D9FF;" width="22.605" height="159.648"/>
							<rect x="397.605" y="147.922" style="fill:#C2D9FF;" width="22.606" height="159.648"/>
							<rect x="431.514" y="147.922" style="fill:#C2D9FF;" width="22.605" height="159.648"/>
							<rect x="465.422" y="147.922" style="fill:#C2D9FF;" width="22.605" height="159.648"/>
						</g>
						<g>
							<rect x="261.973" y="257.831" style="fill:#FFB000;" width="22.605" height="49.739"/>
							<rect x="295.881" y="183.779" style="fill:#5295FE;" width="22.605" height="123.791"/>
							<rect x="329.789" y="168.579" style="fill:#80E1E8;" width="22.605" height="138.992"/>
							<rect x="363.697" y="278.878" style="fill:#5295FE;" width="22.605" height="28.693"/>
							<rect x="397.605" y="237.564" style="fill:#80E1E8;" width="22.606" height="70.006"/>
							<rect x="431.514" y="207.164" style="fill:#5295FE;" width="22.605" height="100.407"/>
							<rect x="465.422" y="250.036" style="fill:#80E1E8;" width="22.605" height="57.534"/>
						</g>
					</g>
					<g>
						
							<polyline style="fill:none;stroke:#FF5050;stroke-width:4;stroke-linecap:round;stroke-linejoin:round;stroke-miterlimit:10;" points="
							271.619,258.773 307.216,184.461 341.254,168.092 375.292,278.781 409.85,237.467 443.628,207.067 476.367,250.978 						"/>
						<path style="fill:#F3F8FF;" d="M346.712,168.443c0,2.915-2.363,5.278-5.278,5.278s-5.278-2.363-5.278-5.278
							c0-2.915,2.363-5.278,5.278-5.278S346.712,165.528,346.712,168.443z"/>
						<path style="fill:#F3F8FF;" d="M312.17,184.573c0,2.915-2.363,5.278-5.278,5.278c-2.915,0-5.278-2.363-5.278-5.278
							c0-2.915,2.363-5.278,5.278-5.278C309.807,179.295,312.17,181.658,312.17,184.573z"/>
						<circle style="fill:#F3F8FF;" cx="271.588" cy="259.593" r="5.278"/>
						<circle style="fill:#F3F8FF;" cx="375.52" cy="278.31" r="5.278"/>
						<circle style="fill:#F3F8FF;" cx="409.454" cy="237.376" r="5.278"/>
						<circle style="fill:#F3F8FF;" cx="443.388" cy="208.464" r="5.278"/>
						<polygon style="fill:#FF5050;" points="481.482,245.014 469.888,254.345 482.149,258.059 						"/>
					</g>
				</g>
			</g>
			<g>
				<rect x="362.825" y="69.353" style="fill:#F3F8FF;" width="96.053" height="15.514"/>
				
					<rect x="402.185" y="69.353" transform="matrix(-1 -1.224647e-16 1.224647e-16 -1 822.8079 154.2196)" style="fill:#5295FE;" width="18.438" height="15.514"/>
				
					<rect x="391.917" y="69.353" transform="matrix(-1 -1.224647e-16 1.224647e-16 -1 802.2723 154.2196)" style="fill:#80E1E8;" width="18.438" height="15.514"/>
				<rect x="362.825" y="69.353" style="fill:#FFB000;" width="33.895" height="15.514"/>
			</g>
			<g>
				<path style="fill:#5295FE;" d="M637.628,244.64c1.488,2.243,4.511,2.856,6.754,1.368l4.351-2.886l-1.036,5.118
					c-0.534,2.637,1.171,5.208,3.809,5.742l2.338,0.473c2.638,0.534,5.209-1.171,5.743-3.809l1.036-5.118l2.887,4.352
					c1.487,2.242,4.511,2.855,6.753,1.368l1.989-1.319c2.242-1.487,2.854-4.512,1.367-6.754l-2.886-4.351l5.118,1.036
					c2.638,0.534,5.208-1.171,5.742-3.809l0.474-2.338c0.533-2.638-1.172-5.208-3.809-5.743l-5.117-1.036l4.351-2.886
					c2.242-1.487,2.854-4.511,1.367-6.754l-1.319-1.988c-1.487-2.243-4.512-2.855-6.754-1.368l-4.351,2.886l1.035-5.118
					c0.534-2.637-1.171-5.208-3.809-5.742l-2.339-0.474c-2.637-0.534-5.208,1.172-5.742,3.809l-1.037,5.118l-2.886-4.351
					c-1.488-2.243-4.511-2.855-6.754-1.368l-1.989,1.319c-2.243,1.488-2.854,4.511-1.367,6.754l2.886,4.351l-5.118-1.036
					c-2.637-0.534-5.208,1.171-5.742,3.809l-0.474,2.339c-0.534,2.637,1.172,5.209,3.809,5.742l5.117,1.036l-4.351,2.886
					c-2.243,1.488-2.855,4.511-1.367,6.754L637.628,244.64z M653.212,223.382c3.64-2.414,8.548-1.421,10.962,2.22
					c2.414,3.64,1.42,8.547-2.219,10.961c-3.64,2.415-8.547,1.421-10.961-2.219C648.579,230.704,649.572,225.796,653.212,223.382z"
					/>
				<path style="fill:#5295FE;" d="M614.211,252.043c-0.318,0.999,0.236,2.066,1.235,2.384l3.655,1.162
					c-0.118,1.143-0.035,2.316,0.286,3.461l-3.397,1.759c-0.931,0.482-1.295,1.627-0.813,2.558c0.482,0.932,1.627,1.296,2.559,0.814
					l3.396-1.759c0.75,0.923,1.66,1.668,2.662,2.232l-1.161,3.655c-0.318,0.999,0.235,2.067,1.234,2.384
					c0.999,0.317,2.067-0.235,2.384-1.234l1.161-3.655c1.144,0.119,2.317,0.035,3.462-0.286l1.758,3.397
					c0.482,0.931,1.628,1.295,2.559,0.813c0.931-0.482,1.295-1.627,0.813-2.558l-1.758-3.397c0.923-0.75,1.668-1.659,2.231-2.661
					l3.655,1.162c0.999,0.317,2.067-0.235,2.385-1.235c0.317-0.999-0.235-2.067-1.234-2.384l-3.655-1.162
					c0.119-1.144,0.036-2.317-0.285-3.461l3.397-1.758c0.931-0.482,1.296-1.628,0.813-2.559c-0.482-0.931-1.627-1.295-2.559-0.813
					l-3.397,1.758c-0.75-0.923-1.659-1.668-2.661-2.232l1.161-3.655c0.317-0.999-0.235-2.066-1.234-2.384
					c-0.999-0.317-2.067,0.235-2.384,1.235l-1.162,3.655c-1.144-0.118-2.316-0.036-3.461,0.285l-1.758-3.397
					c-0.482-0.931-1.627-1.295-2.558-0.813c-0.931,0.482-1.295,1.627-0.813,2.559l1.758,3.397c-0.923,0.749-1.668,1.659-2.232,2.661
					l-3.655-1.161C615.597,250.491,614.529,251.043,614.211,252.043z M625.99,251.954c2.533-1.311,5.65-0.321,6.961,2.212
					c1.311,2.533,0.321,5.649-2.212,6.961c-2.533,1.311-5.65,0.32-6.96-2.213C622.466,256.381,623.457,253.265,625.99,251.954z"/>
				<path style="fill:#5295FE;" d="M585.138,226.179c0.381,1.779,2.131,2.911,3.91,2.531l6.505-1.393
					c0.805,1.825,1.938,3.521,3.407,4.969l-3.606,5.569c-0.987,1.527-0.551,3.566,0.976,4.554c1.527,0.987,3.566,0.551,4.553-0.976
					l3.605-5.57c1.923,0.746,3.934,1.086,5.929,1.073l1.393,6.505c0.381,1.778,2.131,2.911,3.91,2.531
					c1.779-0.381,2.912-2.132,2.531-3.91l-1.394-6.505c1.826-0.805,3.521-1.938,4.969-3.407l5.57,3.605
					c1.527,0.988,3.565,0.551,4.554-0.974c0.988-1.528,0.551-3.567-0.975-4.554l-5.57-3.605c0.746-1.923,1.086-3.934,1.072-5.929
					l6.506-1.393c1.778-0.381,2.91-2.131,2.529-3.91c-0.381-1.778-2.131-2.911-3.909-2.53l-6.504,1.394
					c-0.805-1.826-1.939-3.521-3.407-4.97l3.604-5.57c0.988-1.526,0.552-3.565-0.975-4.553c-1.527-0.988-3.566-0.552-4.553,0.975
					l-3.605,5.57c-1.923-0.747-3.935-1.086-5.929-1.073l-1.393-6.505c-0.381-1.779-2.131-2.912-3.91-2.53
					c-1.778,0.381-2.911,2.131-2.53,3.91l1.393,6.504c-1.825,0.805-3.521,1.939-4.969,3.408l-5.57-3.605
					c-1.527-0.988-3.566-0.552-4.554,0.975c-0.988,1.527-0.551,3.565,0.975,4.553l5.57,3.605c-0.747,1.923-1.087,3.934-1.073,5.929
					l-6.504,1.394C585.89,222.651,584.757,224.401,585.138,226.179z M599.754,213.943c3.779-5.838,11.575-7.508,17.413-3.729
					c5.839,3.778,7.509,11.574,3.729,17.412c-3.778,5.838-11.574,7.508-17.412,3.729
					C597.645,227.577,595.976,219.781,599.754,213.943z"/>
			</g>
			<g>
				<g>
					<circle style="fill:none;stroke:#F3F8FF;stroke-width:6;stroke-miterlimit:10;" cx="273.878" cy="77.953" r="19.173"/>
					<g>
						<path style="fill:#80E1E8;" d="M296.052,77.953h-6c0-8.918-7.255-16.174-16.173-16.174v-6
							C286.105,55.779,296.052,65.727,296.052,77.953z"/>
					</g>
				</g>
				<g>
					<circle style="fill:none;stroke:#F3F8FF;stroke-width:6;stroke-miterlimit:10;" cx="331.703" cy="77.953" r="19.173"/>
					<g>
						<path style="fill:#5295FE;" d="M331.703,100.127c-6.351,0-12.408-2.731-16.618-7.494l4.495-3.974
							c3.072,3.475,7.49,5.467,12.123,5.467c8.918,0,16.173-7.255,16.173-16.173c0-8.918-7.255-16.174-16.173-16.174v-6
							c12.227,0,22.173,9.947,22.173,22.174C353.876,90.18,343.93,100.127,331.703,100.127z"/>
					</g>
				</g>
			</g>
		</g>
		<g>
			<g>
				<path style="fill:#FFB692;" d="M260.058,302.16l-18.762-26.889c-2.039-2.804-5.964-3.424-8.768-1.385l0,0
					c-2.803,2.039-3.424,5.964-1.385,8.768l18.762,26.889L260.058,302.16z"/>
				<path style="fill:#FFB692;" d="M238.371,246.075l-8.21,31.743c-0.802,3.372,1.281,6.756,4.653,7.559l0,0
					c3.372,0.802,6.757-1.281,7.559-4.653l8.21-31.743L238.371,246.075z"/>
				<path style="fill:#D88D87;" d="M250.207,250.435l-2.78-2.205l-9.056-2.154l-8.21,31.743c-0.357,1.499-0.14,3,0.503,4.275
					l12.931-6.095L250.207,250.435z"/>
				<path style="fill:#3A9B9B;" d="M249.604,266.561l4.492-16.4c1.035-4.664-1.905-9.283-6.569-10.319h0
					c-4.663-1.036-9.283,1.905-10.319,6.569l-4.492,16.401L249.604,266.561z"/>
				<g>
					<g>
						<path style="fill:#FFB692;" d="M249.678,297.379l-1.086,0.836c-3.041,2.342-3.607,6.705-1.265,9.746l0,0
							c2.342,3.041,6.705,3.607,9.746,1.265l1.086-0.836c3.041-2.342,3.607-6.705,1.265-9.746l0,0
							C257.082,295.604,252.719,295.037,249.678,297.379z"/>
					</g>
					<g>
						<g>
							<path style="fill:#FFB692;" d="M253.736,307.277l8.957-5.543c0,0-4.885-7.266-8.035-5.322
								c-3.462,2.137,0.737,5.973,0.737,5.973S252.406,304.001,253.736,307.277z"/>
							<g>
								<path style="fill:#D88D87;" d="M254.658,296.413c-0.457,0.376-0.905,0.791-1.074,1.341c-0.176,0.538-0.107,1.108,0.09,1.626
									c0.402,1.035,1.22,1.931,2.058,2.637l0,0.001l0.488,0.462l-0.587,0.347c-0.32,0.189-0.675,0.487-0.942,0.795
									c-0.275,0.315-0.488,0.673-0.621,1.053c-0.132,0.38-0.199,0.784-0.158,1.193c0.015,0.41,0.145,0.817,0.287,1.219
									l0.001,0.003l-0.726-0.237c1.461-0.976,2.995-1.833,4.542-2.668c1.539-0.85,3.101-1.661,4.678-2.449
									c-1.409,1.06-2.832,2.096-4.279,3.094c-1.438,1.012-2.89,2.003-4.415,2.874l-0.56,0.32l-0.167-0.557l-0.001-0.003
									c-0.176-0.486-0.334-0.99-0.358-1.529c-0.05-0.532,0.035-1.086,0.214-1.594c0.179-0.511,0.463-0.977,0.809-1.374
									c0.356-0.4,0.728-0.728,1.222-1.019l-0.1,0.809l-0.001-0.001c-0.442-0.48-0.802-0.968-1.131-1.504
									c-0.323-0.532-0.591-1.11-0.732-1.73c-0.142-0.614-0.124-1.294,0.159-1.863C253.63,297.074,254.159,296.72,254.658,296.413z
									"/>
							</g>
						</g>
						<g>
							<path style="fill:#FFB692;" d="M250.607,308.054L250.607,308.054c-0.777,0.527-0.982,1.594-0.455,2.372l4.16,5.589
								c0.527,0.777,1.594,0.982,2.372,0.455l0,0c0.777-0.527,0.982-1.594,0.455-2.372l-4.159-5.589
								C252.452,307.731,251.384,307.526,250.607,308.054z"/>
							<g>
								<path style="fill:#D88D87;" d="M255.594,312.024c-0.869-0.867-1.671-1.788-2.446-2.728l-0.559-0.685
									c-0.163-0.172-0.364-0.305-0.589-0.37c-0.445-0.157-0.951-0.042-1.292,0.264c-0.356,0.294-0.509,0.798-0.424,1.256
									c0.05,0.248,0.126,0.409,0.328,0.676l0.509,0.754c0.678,1.006,1.316,2.041,1.914,3.11c-0.852-0.88-1.664-1.793-2.436-2.735
									l-0.579-0.707c-0.182-0.201-0.426-0.574-0.501-0.926c-0.187-0.726,0.064-1.547,0.633-2.052
									c0.561-0.515,1.414-0.664,2.114-0.4c0.352,0.129,0.66,0.364,0.893,0.651c0.212,0.294,0.357,0.51,0.53,0.775
									C254.365,309.915,255.014,310.942,255.594,312.024z"/>
							</g>
						</g>
						<g>
							<path style="fill:#FFB692;" d="M253.607,306.416L253.607,306.416c-0.777,0.527-0.982,1.594-0.455,2.372l4.16,5.589
								c0.527,0.777,1.594,0.982,2.372,0.455l0,0c0.777-0.527,0.982-1.594,0.455-2.372l-4.159-5.59
								C255.452,306.094,254.384,305.889,253.607,306.416z"/>
							<g>
								<path style="fill:#D88D87;" d="M258.595,310.386c-0.869-0.867-1.671-1.788-2.446-2.728l-0.559-0.685
									c-0.163-0.172-0.364-0.305-0.589-0.37c-0.445-0.157-0.951-0.042-1.292,0.264c-0.356,0.294-0.509,0.798-0.424,1.256
									c0.05,0.248,0.126,0.409,0.328,0.676l0.509,0.754c0.678,1.006,1.316,2.041,1.914,3.11c-0.852-0.88-1.664-1.793-2.436-2.735
									l-0.579-0.707c-0.183-0.201-0.426-0.574-0.501-0.926c-0.187-0.726,0.063-1.547,0.633-2.052
									c0.561-0.515,1.414-0.664,2.114-0.399c0.352,0.129,0.66,0.364,0.893,0.651c0.211,0.294,0.357,0.51,0.53,0.775
									C257.365,308.278,258.013,309.305,258.595,310.386z"/>
							</g>
						</g>
						<g>
							<path style="fill:#FFB692;" d="M256.73,304.885L256.73,304.885c-0.777,0.527-0.982,1.594-0.455,2.372l4.16,5.589
								c0.527,0.777,1.594,0.982,2.372,0.455l0,0c0.777-0.527,0.982-1.594,0.455-2.372l-4.159-5.59
								C258.575,304.563,257.508,304.358,256.73,304.885z"/>
							<g>
								<path style="fill:#D88D87;" d="M261.718,308.855c-0.869-0.867-1.671-1.788-2.446-2.729l-0.559-0.685
									c-0.163-0.172-0.364-0.305-0.589-0.37c-0.445-0.157-0.951-0.042-1.292,0.264c-0.356,0.294-0.509,0.798-0.424,1.256
									c0.05,0.248,0.126,0.409,0.328,0.676l0.509,0.754c0.678,1.006,1.316,2.041,1.914,3.11c-0.852-0.88-1.664-1.793-2.436-2.735
									l-0.579-0.708c-0.182-0.201-0.426-0.574-0.501-0.926c-0.187-0.726,0.063-1.547,0.633-2.052
									c0.561-0.515,1.414-0.664,2.114-0.399c0.352,0.129,0.66,0.364,0.893,0.651c0.211,0.294,0.357,0.51,0.53,0.775
									C260.489,306.746,261.137,307.774,261.718,308.855z"/>
							</g>
						</g>
						<g>
							<path style="fill:#FFB692;" d="M258.691,301.923L258.691,301.923c-0.777,0.527-0.982,1.595-0.455,2.372l4.16,5.589
								c0.527,0.777,1.594,0.982,2.372,0.455l0,0c0.777-0.527,0.982-1.594,0.455-2.372l-4.159-5.589
								C260.536,301.601,259.468,301.396,258.691,301.923z"/>
							<g>
								<path style="fill:#D88D87;" d="M263.679,305.894c-0.869-0.867-1.671-1.788-2.446-2.728l-0.559-0.685
									c-0.163-0.172-0.364-0.305-0.589-0.37c-0.445-0.157-0.951-0.042-1.292,0.264c-0.356,0.294-0.509,0.798-0.424,1.256
									c0.05,0.248,0.126,0.409,0.328,0.676l0.509,0.754c0.678,1.006,1.316,2.041,1.914,3.11c-0.852-0.88-1.664-1.793-2.436-2.735
									l-0.579-0.707c-0.182-0.201-0.426-0.574-0.501-0.926c-0.187-0.726,0.064-1.547,0.633-2.052
									c0.561-0.515,1.414-0.664,2.114-0.399c0.352,0.129,0.66,0.364,0.893,0.651c0.211,0.294,0.357,0.51,0.53,0.775
									C262.449,303.785,263.098,304.813,263.679,305.894z"/>
							</g>
						</g>
					</g>
				</g>
			</g>
			<g>
				<g>
					<g>
						<path style="fill:#6BDDBC;" d="M244.541,414.826h-1.402c-2.791,0-5.074-2.283-5.074-5.074v-6.966
							c0-2.791,2.283-5.074,5.074-5.074h1.402c2.791,0,5.074,2.283,5.074,5.074v6.966
							C249.615,412.543,247.332,414.826,244.541,414.826z"/>
						<g>
							<g>
								<path style="fill:#5295FE;" d="M237.858,405.659h0.393c0.296,0,0.567,0.182,0.659,0.463
									c0.665,2.033,2.574,3.502,4.829,3.502c2.255,0,4.164-1.47,4.829-3.502c0.092-0.281,0.364-0.463,0.659-0.463h3.735
									c0.118,0,0.233,0.029,0.337,0.086l9.686,5.283c1.412,0.77,2.56,1.946,3.296,3.375l1.365,2.65
									c0.979,1.901-0.401,4.164-2.539,4.164h-25.265c-1.801,0-3.215-1.543-3.058-3.337L237.858,405.659z"/>
								<path style="fill:#3D7AD3;" d="M244.524,409.561c-0.256,0.04-0.517,0.064-0.784,0.064c-1.809,0-3.382-0.954-4.283-2.377
									c-0.554-0.19-1.117-0.365-1.692-0.524l-0.979,11.155c-0.157,1.794,1.257,3.337,3.058,3.337h14.222
									C252.835,416.561,249.384,412.416,244.524,409.561z"/>
								<path style="fill:#FFFFFF;" d="M240.246,414.274c0,1.95,1.237,3.531,2.764,3.531s2.764-1.581,2.764-3.531
									c0-1.95-1.237-3.531-2.764-3.531S240.246,412.323,240.246,414.274z"/>
							</g>
							<path style="fill:#EAAC3D;" d="M238.02,422.132h29.082c0.769,0,1.398-0.629,1.398-1.398l0,0c0-0.769-0.629-1.398-1.398-1.398
								H238.02c-0.769,0-1.398,0.629-1.398,1.398l0,0C236.621,421.503,237.251,422.132,238.02,422.132z"/>
						</g>
					</g>
					
						<rect x="220.633" y="321.783" transform="matrix(-0.1042 -0.9946 0.9946 -0.1042 -60.3176 605.6792)" style="fill:#3E3D5E;" width="43.96" height="16.441"/>
					<path style="fill:#3E3D5E;" d="M252.274,404.363l0.673-55.763l0,0c-9.079-0.11-16.529-1.95-16.638,7.13l-0.475,48.434
						L252.274,404.363z"/>
					<rect x="234.932" y="398.102" style="fill:#4E4E7F;" width="18.028" height="6.746"/>
				</g>
				<path style="fill:#3E3D5E;" d="M223.963,318.888h12.22c7.393,0,13.442-6.049,13.442-13.442l0,0c0-4.949-4.049-8.998-8.998-8.998
					h-21.107c-4.949,0-8.998,4.049-8.998,8.998l0,0C210.521,312.839,216.57,318.888,223.963,318.888z"/>
				<g>
					<g>
						<path style="fill:#6BDDBC;" d="M224.561,414.826h-1.402c-2.791,0-5.074-2.283-5.074-5.074v-6.966
							c0-2.791,2.283-5.074,5.074-5.074h1.402c2.791,0,5.074,2.283,5.074,5.074v6.966
							C229.635,412.543,227.351,414.826,224.561,414.826z"/>
						<g>
							<g>
								<path style="fill:#5295FE;" d="M217.877,405.659h0.393c0.296,0,0.567,0.182,0.659,0.463
									c0.665,2.033,2.574,3.502,4.829,3.502c2.255,0,4.164-1.47,4.829-3.502c0.092-0.281,0.364-0.463,0.659-0.463h3.735
									c0.118,0,0.234,0.029,0.337,0.086l9.686,5.283c1.412,0.77,2.56,1.946,3.296,3.375l1.365,2.65
									c0.979,1.901-0.401,4.164-2.539,4.164h-25.265c-1.801,0-3.215-1.543-3.058-3.337L217.877,405.659z"/>
								<path style="fill:#FFFFFF;" d="M220.265,414.274c0,1.95,1.237,3.531,2.764,3.531c1.526,0,2.764-1.581,2.764-3.531
									c0-1.95-1.237-3.531-2.764-3.531C221.503,410.742,220.265,412.323,220.265,414.274z"/>
							</g>
							<path style="fill:#F4C85B;" d="M218.039,422.132h29.082c0.769,0,1.398-0.629,1.398-1.398l0,0
								c0-0.769-0.629-1.398-1.398-1.398h-29.082c-0.769,0-1.398,0.629-1.398,1.398l0,0
								C216.641,421.503,217.27,422.132,218.039,422.132z"/>
						</g>
					</g>
					
						<rect x="201.607" y="321.783" transform="matrix(-0.1042 -0.9946 0.9946 -0.1042 -81.3263 586.7562)" style="fill:#3E3D5E;" width="43.96" height="16.441"/>
					<path style="fill:#3E3D5E;" d="M233.248,404.363l0.673-55.763l0,0c-9.079-0.11-16.529-1.95-16.638,7.13l-0.475,48.434
						L233.248,404.363z"/>
				</g>
				<rect x="215.714" y="398.102" style="fill:#4E4E7F;" width="18.028" height="6.746"/>
				<path style="fill:#262638;" d="M219.049,296.448h22.047c3.249,0,6.085,1.842,7.524,4.533
					c-15.022,11.62-29.464,10.501-37.686,8.32c-0.26-1.011-0.413-2.063-0.413-3.152v-1.173
					C210.521,300.285,214.358,296.448,219.049,296.448z"/>
			</g>
			<g>
				<g>
					<path style="fill:#6BDDBC;" d="M251.09,303.38c-7.004,1.93-17.115,3.724-29.086,2.481c-4.851-0.504-9.192-1.422-12.951-2.481
						c0-16.829,0-33.659,0-50.488c0-9.368,7.595-16.963,16.963-16.963h3.205c12.078,0,21.869,9.791,21.869,21.869V303.38z"/>
				</g>
				<path style="fill:#69C9AB;" d="M251.09,269.875v-12.757l-18.806,6.815l-15.16-19.722c-2.164,2.848-8.071,4.893-8.071,7.12
					C221.588,291.359,244.384,275.648,251.09,269.875z"/>
				<path style="fill:#3A9B9B;" d="M216.508,305.069c0.338,0.06,0.676,0.121,1.02,0.177v-67.026c-0.345,0.2-0.691,0.4-1.02,0.623
					V305.069z"/>
				<path style="fill:#FFB692;" d="M220.862,238.715c-0.487,2.765,4.095,5.882,10.233,6.962c6.139,1.081,11.509-0.285,11.996-3.049
					c0.487-2.765-4.095-5.882-10.234-6.963C226.72,234.586,221.349,235.951,220.862,238.715z"/>
			</g>
			<g>
				<g>
					<path style="fill:#FFB692;" d="M238.93,237.409c0-16.912-3.302-8.123-7.376-8.123c-4.074,0-7.376-7.699-7.376,8.123
						c0,5.927,3.302,5.415,7.376,5.415C235.628,242.824,238.93,243.336,238.93,237.409z"/>
					<path style="fill:#D88D87;" d="M224.333,232.469c0.695-9.054,3.664-3.182,7.222-3.182c3.944,0,7.165-8.24,7.366,6.59
						C232.618,237.937,227.729,235.545,224.333,232.469z"/>
				</g>
				<g>
					<path style="fill:#FFB692;" d="M242.566,215.72c-0.856,2.319-0.3,4.698,1.24,5.314c1.541,0.616,3.484-0.764,4.339-3.083
						c0.856-2.319,0.3-4.698-1.24-5.314C245.364,212.021,243.421,213.401,242.566,215.72z"/>
					<path style="fill:#D88D87;" d="M244.21,216.291c-0.235-0.094-0.485-0.115-0.736-0.076c0.013-0.039,0.024-0.077,0.038-0.116
						c0.566-1.532,1.849-2.444,2.867-2.037c1.018,0.407,1.385,1.979,0.82,3.51c-0.435,1.178-1.294,1.986-2.13,2.113
						C245.574,218.191,245.203,216.688,244.21,216.291z"/>
				</g>
				<path style="fill:#FFB692;" d="M230.405,198.824h6.563c5.121,0,9.312,4.19,9.312,9.312v13.556
					c0,7.152-5.851,13.003-13.003,13.003l0,0c-7.152,0-13.003-5.851-13.003-13.003v-12.737
					C220.274,203.383,224.833,198.824,230.405,198.824z"/>
				<path style="fill:#D88D87;" d="M236.968,198.824h-6.563c-4.093,0-7.632,2.465-9.226,5.98c9.305,8.774,18.794,9.143,25.102,7.914
					v-4.582C246.28,203.014,242.089,198.824,236.968,198.824z"/>
				<path style="fill:#323244;" d="M219.385,216.261c-5.673-13.926,1.65-20.218,7.943-19.393c6.292,0.825,9.697,1.135,9.697,1.135
					l-1.547-5.158c0,0,4.745,1.238,6.086,5.467l-0.103-7.53c0,0,7.736,4.539,8.252,13.926c0.516,9.387-12.275,10.625-20.94,2.166
					C228.772,206.874,228.36,218.118,219.385,216.261z"/>
				<g>
					<path style="fill:#D88D87;" d="M240.782,220.735c0,0-3.393,0.621-3.408,1.257c-0.015,0.636,1.636,0.939,2.09,0.667
						C239.919,222.386,240.782,220.735,240.782,220.735z"/>
					<g>
						<path style="fill:#34344F;" d="M241.623,215.768c-0.049,0.788,0.55,1.467,1.339,1.516c0.788,0.049,1.467-0.551,1.516-1.339
							c0.049-0.788-0.551-1.467-1.339-1.516C242.35,214.38,241.672,214.979,241.623,215.768z"/>
						<path style="fill:#34344F;" d="M231.695,215.828c-0.049,0.788,0.551,1.467,1.339,1.516c0.788,0.049,1.467-0.551,1.516-1.339
							c0.049-0.788-0.551-1.467-1.339-1.516C232.423,214.44,231.744,215.04,231.695,215.828z"/>
						<path style="fill:#D88D87;" d="M238.044,213.367c0.382,1.641,0.873,3.23,1.399,4.809c0.267,0.788,0.534,1.575,0.834,2.354
							l0.057,0.146c0.023,0.064-0.023-0.044,0.008-0.099c0.019-0.041,0.001-0.008,0.007-0.014c-0.015,0.036-0.083,0.117-0.144,0.182
							l-0.428,0.425c-0.295,0.291-0.6,0.582-0.881,0.914c0.417-0.127,0.802-0.311,1.176-0.522c0.183-0.113,0.37-0.22,0.545-0.367
							c0.09-0.077,0.176-0.142,0.279-0.278c0.029-0.052,0.049-0.059,0.08-0.151c0.036-0.107,0.009-0.268,0.004-0.252l-0.05-0.149
							c-0.269-0.795-0.57-1.581-0.872-2.366C239.447,216.429,238.8,214.872,238.044,213.367z"/>
					</g>
					<g>
						<path style="fill:#34344F;" d="M239.214,224.146c-1.586-0.46-3.786-1.213-5.813-2.304c-1.333-0.718-2.781,0.908-2.235,2.534
							c0.581,1.73,1.775,3.434,4.19,3.96c1.979,0.431,3.324,0.066,4.234-0.571C240.878,226.862,240.627,224.556,239.214,224.146z"/>
						<path style="fill:#FF9292;" d="M235.355,228.336c-2.415-0.526-3.609-2.23-4.19-3.96c-0.082-0.244-0.114-0.487-0.114-0.722
							c0.917-0.281,2.094-0.291,3.6,0.244c2.327,0.827,3.284,2.665,3.628,4.451c0.001,0.004,0.001,0.007,0.001,0.01
							C237.506,228.563,236.548,228.596,235.355,228.336z"/>
						<path style="fill:#FFABAB;" d="M236.777,226.49c-0.293,0.381-1.208,0.197-2.044-0.412c-0.836-0.609-1.276-1.413-0.983-1.794
							c0.293-0.382,1.208-0.197,2.044,0.412C236.629,225.305,237.07,226.109,236.777,226.49z"/>
						<path style="fill:#FFFFFF;" d="M239.214,224.146c-1.586-0.46-3.786-1.213-5.813-2.304c-0.819-0.441-1.679,0.004-2.096,0.788
							c1.109,1.276,2.905,2.423,5.085,3.112c1.398,0.441,2.774,0.637,4.016,0.614C240.533,225.416,240.105,224.404,239.214,224.146z
							"/>
					</g>
				</g>
				<g>
					<path style="fill:#FFB692;" d="M224.521,215.823c0.77,2.348,0.127,4.705-1.435,5.264c-1.562,0.559-3.453-0.892-4.223-3.24
						c-0.77-2.349-0.127-4.705,1.435-5.264C221.86,212.024,223.751,213.475,224.521,215.823z"/>
					<path style="fill:#D88D87;" d="M222.856,216.334c0.238-0.085,0.489-0.097,0.739-0.049c-0.012-0.039-0.021-0.078-0.034-0.117
						c-0.509-1.552-1.758-2.51-2.79-2.141c-1.032,0.369-1.457,1.926-0.948,3.478c0.391,1.193,1.22,2.032,2.051,2.19
						C221.424,218.182,221.85,216.693,222.856,216.334z"/>
				</g>
				<path style="fill:#5F5F82;" d="M249.527,207.096c0.165-0.726,0.233-1.522,0.185-2.388c-0.04-0.724-0.135-1.41-0.254-2.076
					c-1.219,3.198-3.559,5.847-7.998,5.635c-6.105-0.291-9.194-6.021-10.728-10.966c-1.019-0.125-2.152-0.268-3.404-0.432
					c-1.695-0.222-3.463,0.077-5.034,0.898C234.859,212.285,244.061,210.809,249.527,207.096z"/>
			</g>
			<g>
				<g>
					<path style="fill:#F29D7E;" d="M264.484,246.159l0.005-3.68l0.152-2.027c0.084-1.119,1.06-1.958,2.179-1.874l8.003,0.601
						c0.021-0.018,0.03,0.052,0.03,0.185c-0.003,1.26-0.666,2.344-1.642,2.988c1.208,1.014,2.089,2.38,2.5,3.926
						c0.162,1.904-1.418,3.5-3.324,3.357l-5.034-0.378C265.733,249.136,264.481,247.784,264.484,246.159z"/>
					<g>
						<path style="fill:#323244;" d="M269.795,246.177l39.359-51.093c0.168-0.219,0.482-0.26,0.701-0.091
							c0.215,0.166,0.258,0.473,0.098,0.692l-38.136,52.013c-0.413,0.564-1.205,0.686-1.769,0.272
							c-0.564-0.413-0.686-1.205-0.272-1.769C269.782,246.194,269.79,246.183,269.795,246.177z"/>
					</g>
					<path style="fill:#FFB692;" d="M263.527,246.85l-23.206,14.4c-2.854,1.967-3.574,5.875-1.607,8.73l0,0
						c1.967,2.854,5.875,3.574,8.73,1.607l23.206-14.401L263.527,246.85z"/>
					<g>
						<path style="fill:#FFB692;" d="M263.7,253.936l0.874,1.153c2.448,3.229,7.049,3.862,10.279,1.415v0
							c3.229-2.448,3.862-7.049,1.415-10.279l-0.874-1.153c-2.448-3.229-7.049-3.862-10.278-1.415l0,0
							C261.886,246.106,261.253,250.707,263.7,253.936z"/>
						<path style="fill:#FFB692;" d="M271.793,250.854L271.793,250.854c0.349,0.992,1.446,1.518,2.438,1.169l7.237-2.908
							c0.992-0.349,1.518-1.446,1.169-2.438l0,0c-0.349-0.992-1.446-1.518-2.438-1.169l-7.237,2.908
							C271.97,248.766,271.444,249.863,271.793,250.854z"/>
						<path style="fill:#FFB692;" d="M272.38,253.862L272.38,253.862c0.285,1.012,1.346,1.607,2.358,1.322l7.408-2.441
							c1.012-0.285,1.607-1.346,1.322-2.358l0,0c-0.285-1.012-1.346-1.607-2.358-1.322l-7.408,2.441
							C272.69,251.789,272.095,252.85,272.38,253.862z"/>
						<path style="fill:#FFB692;" d="M270.043,244.307L270.043,244.307c0.349,0.992,1.446,1.518,2.438,1.169l7.237-2.908
							c0.992-0.349,1.518-1.446,1.169-2.438l0,0c-0.349-0.992-1.446-1.518-2.438-1.169l-7.237,2.908
							C270.221,242.218,269.695,243.315,270.043,244.307z"/>
						<path style="fill:#FFB692;" d="M270.631,247.315L270.631,247.315c0.285,1.012,1.346,1.607,2.358,1.322l7.408-2.441
							c1.012-0.285,1.607-1.346,1.322-2.358l0,0c-0.285-1.012-1.346-1.607-2.358-1.322l-7.408,2.441
							C270.941,245.242,270.346,246.303,270.631,247.315z"/>
					</g>
				</g>
				<g>
					<path style="fill:#FFB692;" d="M212.046,256.645l28.909,15.47c3.088,1.576,6.868,0.35,8.443-2.738l0,0
						c1.575-3.087,0.35-6.868-2.738-8.443l-28.909-15.47L212.046,256.645z"/>
					<path style="fill:#D88D87;" d="M233.387,268.065c0.228-4.207,0.31-9.938-0.464-14.483l-3.316-1.774l-8.043,9.93
						L233.387,268.065z"/>
					<path style="fill:#3A9B9B;" d="M234.605,250.565l-14.877-8.236c-4.287-2.107-9.471-0.339-11.577,3.948l0,0
						c-2.107,4.287-0.339,9.471,3.948,11.577l14.877,8.236L234.605,250.565z"/>
				</g>
			</g>
		</g>
		<g>
			<path style="fill:#323244;" d="M509.314,206.656c0,27.325-15.949,32.805-3.855,50.19c12.094,17.385,49.737,4.989,38.852-18.292
				c-10.885-23.281-10.28-37.189-10.28-37.189L509.314,206.656z"/>
			<g>
				<path style="fill:#D88D87;" d="M462.63,271.843l32.787-0.244c3.466,0.042,6.242,2.886,6.2,6.352l0,0
					c-0.042,3.466-2.886,6.242-6.352,6.2l-32.787,0.244L462.63,271.843z"/>
				<path style="fill:#D88D87;" d="M517.735,253.16l-16.947,28.068c-1.849,2.932-5.725,3.81-8.657,1.96l0,0
					c-2.932-1.849-3.809-5.725-1.96-8.657l16.947-28.068L517.735,253.16z"/>
			</g>
			<g>
				<g>
					<g>
						<path style="fill:#FFB000;" d="M508.961,414.826h1.402c2.791,0,5.074-2.283,5.074-5.074v-6.966
							c0-2.791-2.283-5.074-5.074-5.074h-1.402c-2.791,0-5.074,2.283-5.074,5.074v6.966
							C503.887,412.543,506.17,414.826,508.961,414.826z"/>
						<g>
							<g>
								<path style="fill:#9129E3;" d="M515.644,405.659h-0.393c-0.296,0-0.567,0.182-0.659,0.463
									c-0.665,2.033-2.574,3.502-4.829,3.502c-2.255,0-4.164-1.47-4.829-3.502c-0.092-0.281-0.364-0.463-0.659-0.463h-3.735
									c-0.118,0-0.234,0.029-0.337,0.086l-9.686,5.283c-1.412,0.77-2.56,1.946-3.296,3.375l-1.365,2.65
									c-0.979,1.901,0.401,4.164,2.539,4.164h25.265c1.801,0,3.215-1.543,3.058-3.337L515.644,405.659z"/>
								<path style="fill:#FFFFFF;" d="M513.256,414.274c0,1.95-1.237,3.531-2.764,3.531c-1.526,0-2.764-1.581-2.764-3.531
									c0-1.95,1.237-3.531,2.764-3.531C512.019,410.742,513.256,412.323,513.256,414.274z"/>
							</g>
							<path style="fill:#EAAC3D;" d="M515.482,422.132H486.4c-0.769,0-1.398-0.629-1.398-1.398l0,0
								c0-0.769,0.629-1.398,1.398-1.398h29.082c0.769,0,1.398,0.629,1.398,1.398l0,0
								C516.88,421.503,516.251,422.132,515.482,422.132z"/>
						</g>
					</g>
					
						<rect x="488.908" y="321.783" transform="matrix(0.1042 -0.9946 0.9946 0.1042 129.4512 803.7291)" style="fill:#5295FE;" width="43.96" height="16.441"/>
					<path style="fill:#5295FE;" d="M501.228,404.363l-0.673-55.763l0,0c9.08-0.11,16.529-1.95,16.638,7.13l0.475,48.434
						L501.228,404.363z"/>
				</g>
				<path style="fill:#5295FE;" d="M529.539,318.888h-12.22c-7.393,0-13.442-6.049-13.442-13.442l0,0
					c0-4.949,4.049-8.998,8.998-8.998h21.107c4.949,0,8.998,4.049,8.998,8.998l0,0C542.981,312.839,536.932,318.888,529.539,318.888
					z"/>
				<g>
					<g>
						<path style="fill:#FFB000;" d="M540.279,414.826h1.402c2.791,0,5.074-2.283,5.074-5.074v-6.966
							c0-2.791-2.283-5.074-5.074-5.074h-1.402c-2.791,0-5.074,2.283-5.074,5.074v6.966
							C535.205,412.543,537.489,414.826,540.279,414.826z"/>
						<g>
							<g>
								<path style="fill:#9129E3;" d="M546.963,405.659h-0.393c-0.296,0-0.567,0.182-0.659,0.463
									c-0.665,2.033-2.574,3.502-4.829,3.502c-2.255,0-4.164-1.47-4.829-3.502c-0.092-0.281-0.364-0.463-0.659-0.463h-3.735
									c-0.118,0-0.234,0.029-0.337,0.086l-9.686,5.283c-1.412,0.77-2.56,1.946-3.296,3.375l-1.365,2.65
									c-0.979,1.901,0.401,4.164,2.539,4.164h25.265c1.801,0,3.215-1.543,3.058-3.337L546.963,405.659z"/>
								<path style="fill:#FFFFFF;" d="M544.575,414.274c0,1.95-1.237,3.531-2.763,3.531c-1.526,0-2.763-1.581-2.763-3.531
									c0-1.95,1.237-3.531,2.763-3.531C543.337,410.742,544.575,412.323,544.575,414.274z"/>
							</g>
							<path style="fill:#F4C85B;" d="M546.801,422.132h-29.082c-0.769,0-1.398-0.629-1.398-1.398l0,0
								c0-0.769,0.629-1.398,1.398-1.398h29.082c0.769,0,1.398,0.629,1.398,1.398l0,0
								C548.199,421.503,547.57,422.132,546.801,422.132z"/>
						</g>
					</g>
					<polygon style="fill:#5295FE;" points="543.124,308.024 542.96,352.55 526.682,351.984 526.682,308.024 					"/>
					<path style="fill:#5295FE;" d="M531.885,404.943l-5.167-53.101c9.036-0.892,15.989-5.763,16.88,3.273l4.648,48.213
						L531.885,404.943z"/>
				</g>
				<path style="fill:#3B6BB2;" d="M534.453,296.448h-22.047c-3.249,0-6.085,1.842-7.524,4.533
					c15.022,11.62,29.464,10.501,37.686,8.32c0.26-1.011,0.413-2.063,0.413-3.152v-1.173
					C542.981,300.285,539.143,296.448,534.453,296.448z"/>
			</g>
			<g>
				<path style="fill:#FF5050;" d="M505.474,246.174l-1.039-5.251c4.614-3.076,8.857-4.485,18.343-4.485
					c3.838,0.448,7.284,1.156,10.19,1.907c5.684,1.471,9.48,6.814,8.949,12.661l-3.351,16.083l6.258,36.32
					c-18.538,4.333-43.818,0-43.818,0l5.48-35.253C500.796,263.076,502.712,255.852,505.474,246.174z"/>
				<path style="fill:#AD475B;" d="M527.905,269.705c-11.208-7.158-16.848-0.868-16.848-0.868S522.193,272.525,527.905,269.705z"/>
			</g>
			<g>
				<g>
					<path style="fill:#FFB692;" d="M514.572,237.409c0-16.912,3.302-8.123,7.376-8.123s7.376-7.699,7.376,8.123
						c0,5.927-3.302,5.415-7.376,5.415S514.572,243.336,514.572,237.409z"/>
					<path style="fill:#D88D87;" d="M529.169,232.469c-0.695-9.054-3.664-3.182-7.222-3.182c-3.944,0-7.165-8.24-7.366,6.59
						C520.884,237.937,525.773,235.545,529.169,232.469z"/>
				</g>
				<g>
					<path style="fill:#FFB692;" d="M510.936,215.72c0.856,2.319,0.3,4.698-1.24,5.314c-1.541,0.616-3.483-0.764-4.339-3.083
						c-0.856-2.319-0.301-4.698,1.24-5.314C508.138,212.021,510.081,213.401,510.936,215.72z"/>
					<path style="fill:#D88D87;" d="M509.291,216.291c0.235-0.094,0.485-0.115,0.736-0.076c-0.013-0.039-0.024-0.077-0.038-0.116
						c-0.565-1.532-1.849-2.444-2.867-2.037c-1.018,0.407-1.385,1.979-0.82,3.51c0.435,1.178,1.294,1.986,2.13,2.113
						C507.928,218.191,508.299,216.688,509.291,216.291z"/>
				</g>
				<path style="fill:#FFB692;" d="M523.097,198.824h-6.563c-5.121,0-9.312,4.19-9.312,9.312v13.556
					c0,7.152,5.851,13.003,13.003,13.003h0c7.152,0,13.003-5.851,13.003-13.003v-12.737
					C533.228,203.383,528.669,198.824,523.097,198.824z"/>
				<path style="fill:#D88D87;" d="M516.534,198.824h6.563c4.093,0,7.632,2.465,9.226,5.98c-9.305,8.774-18.794,9.143-25.102,7.914
					v-4.582C507.222,203.014,511.412,198.824,516.534,198.824z"/>
				<path style="fill:#323244;" d="M531.81,216.835c-9.495-0.126-10.326-6.929-10.024-9.65c0,0-7.786,7.332-14.437,5.064
					c0,0-3.166-5.766-0.605-10.658c2.513-4.8,11.036-3.779,11.036-3.779s8.463-5.1,14.437,0.529
					C541.364,206.958,531.81,216.835,531.81,216.835z"/>
				<g>
					<path style="fill:#D88D87;" d="M512.72,220.735c0,0,3.393,0.621,3.408,1.257c0.015,0.636-1.636,0.939-2.09,0.667
						C513.583,222.386,512.72,220.735,512.72,220.735z"/>
					<g>
						<path style="fill:#34344F;" d="M511.879,215.768c0.049,0.788-0.55,1.467-1.339,1.516c-0.788,0.049-1.467-0.551-1.516-1.339
							c-0.049-0.788,0.551-1.467,1.339-1.516S511.83,214.979,511.879,215.768z"/>
						<path style="fill:#34344F;" d="M521.807,215.828c0.049,0.788-0.551,1.467-1.339,1.516c-0.788,0.049-1.467-0.551-1.516-1.339
							c-0.049-0.788,0.551-1.467,1.339-1.516C521.079,214.44,521.758,215.04,521.807,215.828z"/>
						<path style="fill:#D88D87;" d="M515.457,213.367c-0.382,1.641-0.873,3.23-1.399,4.809c-0.267,0.788-0.534,1.575-0.834,2.354
							l-0.057,0.146c-0.023,0.064,0.023-0.044-0.008-0.099c-0.019-0.041-0.001-0.008-0.007-0.014
							c0.015,0.036,0.083,0.117,0.144,0.182l0.428,0.425c0.295,0.291,0.599,0.582,0.881,0.914c-0.418-0.127-0.802-0.311-1.176-0.522
							c-0.183-0.113-0.37-0.22-0.545-0.367c-0.09-0.077-0.176-0.142-0.279-0.278c-0.029-0.052-0.049-0.059-0.08-0.151
							c-0.036-0.107-0.009-0.268-0.004-0.252l0.05-0.149c0.269-0.795,0.57-1.581,0.872-2.366
							C514.055,216.429,514.702,214.872,515.457,213.367z"/>
					</g>
					<path style="fill:#34344F;" d="M520.482,216.18c2.324,0.416,2.438-1.682,2.438-1.682l-2.57,0.189L520.482,216.18z"/>
					<path style="fill:#34344F;" d="M510.429,216.18c-2.324,0.416-2.438-1.682-2.438-1.682l2.57,0.189L510.429,216.18z"/>
					<g>
						<path style="fill:#D88D87;" d="M512.546,225.028c0,0,4.242,0.252,8.107-2.226c0,0-0.308,3.024-3.641,3.696
							C513.68,227.17,512.546,225.028,512.546,225.028z"/>
						<path style="fill:#E59793;" d="M512.546,225.028l8.107-2.226C520.652,222.802,517.313,225.532,512.546,225.028z"/>
					</g>
				</g>
				<g>
					<path style="fill:#FFB692;" d="M528.981,215.823c-0.77,2.348-0.127,4.705,1.435,5.264c1.562,0.559,3.453-0.892,4.223-3.24
						c0.77-2.349,0.127-4.705-1.435-5.264C531.642,212.024,529.751,213.475,528.981,215.823z"/>
					<path style="fill:#D88D87;" d="M530.646,216.334c-0.239-0.085-0.489-0.097-0.739-0.049c0.012-0.039,0.021-0.078,0.034-0.117
						c0.509-1.552,1.758-2.51,2.79-2.141c1.032,0.369,1.457,1.926,0.948,3.478c-0.391,1.193-1.22,2.032-2.051,2.19
						C532.078,218.182,531.652,216.693,530.646,216.334z"/>
				</g>
			</g>
			<g>
				<g>
					<path style="fill:#F29D7E;" d="M490.289,267.971l-1.591-3.318l-1.011-1.763c-0.558-0.974-1.8-1.31-2.774-0.752l-6.962,3.992
						c-0.027-0.007-0.005,0.06,0.053,0.179c0.546,1.136,1.612,1.828,2.769,1.988c-0.653,1.436-0.86,3.048-0.563,4.621
						c0.674,1.788,2.789,2.547,4.446,1.596l4.379-2.511C490.445,271.195,490.992,269.436,490.289,267.971z"/>
					<path style="fill:#FFB692;" d="M490.656,266.935l32.475,4.517c3.423,0.545,5.757,3.761,5.213,7.184l0,0
						c-0.544,3.423-3.761,5.757-7.184,5.213l-32.475-4.517L490.656,266.935z"/>
					<g>
						<path style="fill:#FFB692;" d="M493.555,273.404l-0.292,1.417c-0.817,3.969-4.696,6.524-8.665,5.707v0
							c-3.969-0.817-6.524-4.696-5.707-8.665l0.292-1.417c0.817-3.969,4.696-6.524,8.665-5.707l0,0
							C491.817,265.555,494.372,269.435,493.555,273.404z"/>
						<path style="fill:#FFB692;" d="M486.767,273.997L486.767,273.997c0.113,1.045-0.65,1.993-1.696,2.106l-7.783,0.495
							c-1.045,0.113-1.993-0.65-2.106-1.696l0,0c-0.113-1.045,0.65-1.993,1.696-2.106l7.784-0.495
							C485.707,272.189,486.654,272.952,486.767,273.997z"/>
						<path style="fill:#FFB692;" d="M487.534,276.965L487.534,276.965c0.179,1.036-0.522,2.03-1.558,2.21l-7.736,0.991
							c-1.036,0.179-2.03-0.522-2.209-1.558l0,0c-0.179-1.036,0.522-2.03,1.558-2.209l7.736-0.991
							C486.36,275.227,487.354,275.929,487.534,276.965z"/>
						<path style="fill:#FFB692;" d="M486.151,267.166L486.151,267.166c0.113,1.045-0.65,1.993-1.696,2.106l-12.946,1.09
							c-1.046,0.113-1.993-0.65-2.106-1.696l0,0c-0.113-1.045,0.65-1.993,1.696-2.106l12.947-1.09
							C485.09,265.357,486.038,266.12,486.151,267.166z"/>
						<path style="fill:#FFB692;" d="M486.29,270.303L486.29,270.303c0.179,1.036-0.522,2.03-1.558,2.21l-7.736,0.991
							c-1.036,0.179-2.03-0.522-2.21-1.558l0,0c-0.179-1.036,0.522-2.03,1.558-2.21l7.736-0.991
							C485.116,268.566,486.11,269.267,486.29,270.303z"/>
					</g>
				</g>
				<g>
					<path style="fill:#FFB692;" d="M537.134,240.408c3.138,1.341,4.629,4.944,3.356,8.111l-12.659,31.487
						c-1.362,3.188-5.051,4.667-8.238,3.305h0c-3.187-1.362-4.667-5.05-3.305-8.238l12.558-31.235
						C530.159,240.572,533.899,239.025,537.134,240.408L537.134,240.408z"/>
				</g>
			</g>
			<g>
				<g>
					
						<rect x="441.771" y="280.852" transform="matrix(-1 -1.224647e-16 1.224647e-16 -1 931.8257 563.3535)" style="fill:#EFF6FF;" width="48.285" height="1.649"/>
					
						<rect x="441.771" y="280.852" transform="matrix(-1 -1.224647e-16 1.224647e-16 -1 916.5544 563.3535)" style="fill:#A0B8E8;" width="33.013" height="1.649"/>
				</g>
				<polygon style="fill:#A0B8E8;" points="441.768,280.86 474.785,280.856 467.891,257.64 434.907,257.64 				"/>
				<polygon style="fill:#EFF6FF;" points="467.891,257.64 469.144,257.64 476.136,280.926 474.784,280.852 				"/>
				<path style="fill:#EFF6FF;" d="M449.854,270.469c0.602,1.85,2.375,2.932,3.959,2.416c1.584-0.516,2.38-2.434,1.777-4.284
					c-0.602-1.85-2.375-2.932-3.959-2.416C450.048,266.701,449.252,268.619,449.854,270.469z"/>
			</g>
			<g>
				<path style="fill:#D88D87;" d="M455.31,283.744c-3.205,1.394-6.039-0.139-6.41-1.44c-0.372-1.301-0.976-2.462-0.976-2.462
					l3.112-4.413c0,0,1.881,1.254,0.465,3.925C451.501,279.355,454.753,278.96,455.31,283.744z"/>
				<path style="fill:#FFB692;" d="M465.855,284.255c0,0-10.87,0.975-12.96-0.279c-2.09-1.254-2.855-13.658,4.413-14.353
					C467.016,268.694,465.855,284.255,465.855,284.255z"/>
			</g>
		</g>
	</g>
</g>
</svg>
